<svg id="Laag_2" data-name="Laag 2" xmlns="http://www.w3.org/2000/svg" viewBox="0 0 554.31 109.71"><defs><style>.cls-1{fill:#78a22f;}.cls-2{fill:#685546;}</style></defs><title>AfterPay_Logo_RGB</title><path class="cls-1" d="M58.88,60.31a32.48,32.48,0,0,0-6.41-.64,31.11,31.11,0,0,0-6.33.64c-15.31,3-25.2,15.1-25.2,30.73v49.68a9.68,9.68,0,0,0,.83,4.49,5.07,5.07,0,0,0,4.45,2.63,5.26,5.26,0,0,0,3-.93c1.87-1.25,2.7-3.23,2.7-6.42V120.1H73v20.62a9,9,0,0,0,1.06,4.48,5,5,0,0,0,4.45,2.64h0a5.2,5.2,0,0,0,3-.93C83.67,145.46,84,143,84,140.49V91C84,75.39,74.12,63.33,58.88,60.31ZM32,109.82V91.15c0-8,2.84-13.64,9-17.68A20.29,20.29,0,0,1,52.52,70a23.1,23.1,0,0,1,4.14.38,18.49,18.49,0,0,1,7.3,3.1c6.09,4,9.05,9.81,9.05,17.67v18.67Z" transform="translate(-20.94 -59.57)"/><path class="cls-1" d="M198.4,118.62a5.14,5.14,0,0,0-2.59.7c-1.7.82-2.75,2.46-3.2,5l-.48,2.6-.09.71c-1.62,7-7,11.4-14.06,11.4a18.9,18.9,0,0,1-2.59-.18c-8.53-1.34-12.51-7.14-12.51-18.25v-1.39h16.25c2,0,7.14,0,7.14-5.21a4.73,4.73,0,0,0-4.24-4.84,28.69,28.69,0,0,0-3.35-.13h-15.8V86.7a9.58,9.58,0,0,0-.83-4.48,5,5,0,0,0-4.45-2.63,5.29,5.29,0,0,0-3,.92c-2.17,1.46-2.47,3.95-2.47,6.43v32.41c0,18.16,6.57,27.33,21.26,29.71a30.47,30.47,0,0,0,5.17.46h0a24.69,24.69,0,0,0,24.3-18.59,17.78,17.78,0,0,0,.5-2.63c.6-3.31.48-5.19-.42-6.88A5.07,5.07,0,0,0,198.4,118.62Z" transform="translate(-20.94 -59.57)"/><path class="cls-1" d="M245.65,80.31a37.56,37.56,0,0,0-9.16,1.14,34.42,34.42,0,0,0-24.86,45c4.53,13.92,17.84,23.28,33.11,23.28a39.77,39.77,0,0,0,8.3-.89,36.7,36.7,0,0,0,12.2-5.14,32.37,32.37,0,0,0,6.38-5.42c1.9-2.23,3-4,2.8-6.07a5,5,0,0,0-5-4.5,4.28,4.28,0,0,0-1,.11l-.17,0a8.07,8.07,0,0,0-3.43,1.91l-.1.09-.89,1.12-1.54,1.43a23.83,23.83,0,0,1-11.81,6.6,25.53,25.53,0,0,1-5.61.63A23.75,23.75,0,0,1,222.48,124c-.4-1.21-.71-2.27-.94-3.24h52.07l.88-.12,1.76-.11a4.93,4.93,0,0,0,3.91-2c1.54-2.2,1.38-5.75-.55-12.63A35,35,0,0,0,245.65,80.31Zm-24.39,30.88a26.56,26.56,0,0,1,.88-3.61,24,24,0,0,1,23.14-17.14,25.64,25.64,0,0,1,7.12,1A24.29,24.29,0,0,1,269.14,109a21.44,21.44,0,0,1,.53,2.23Z" transform="translate(-20.94 -59.57)"/><path class="cls-1" d="M339.42,98.14l-.22-.67c-4-11-13.09-17.57-24.42-17.57h-.29a26.72,26.72,0,0,0-5.51.52c-9.07,2-19.89,8.59-19.89,28.43v31.87a8.88,8.88,0,0,0,1.07,4.48,5,5,0,0,0,4.44,2.64,5.26,5.26,0,0,0,3-.93c2.08-1.39,2.24-3.63,2.24-6.42V108.85c0-10.77,3.57-16.29,11.61-17.92a15.12,15.12,0,0,1,3.28-.36,14,14,0,0,1,10.85,5,14.39,14.39,0,0,1,3,5.44c1.15,5.56,1.79,7.27,2.5,8.33l.09.12.1.12a5.5,5.5,0,0,0,4.12,1.78,5.71,5.71,0,0,0,2.59-.62c3.36-1.81,3-6.25,2.26-10A23.64,23.64,0,0,0,339.42,98.14Z" transform="translate(-20.94 -59.57)"/><path class="cls-2" d="M385.37,59.57H385c-17.43.25-29.14,12.89-29.14,31.47v49.68a9.14,9.14,0,0,0,1.06,4.49,5.06,5.06,0,0,0,4.45,2.63,5.2,5.2,0,0,0,3-.93c2.28-1.53,2.59-4.1,2.59-6.42v-23h17.64c16,0,27-8.35,29.93-22.9a28.75,28.75,0,0,0-5.77-24.15A29.79,29.79,0,0,0,385.37,59.57Zm18.52,29.25c-.2,10.82-8.2,18.27-19.45,18.27H367V90c0-7.51,1.16-11.1,4.74-14.78a17.87,17.87,0,0,1,13.33-5.38h.45C396.43,70.06,404,77.87,403.89,88.82Z" transform="translate(-20.94 -59.57)"/><path class="cls-2" d="M487.85,103.89c-4.05-14.11-17.58-24-32.91-24a37.15,37.15,0,0,0-10.62,1.56,34.4,34.4,0,0,0-24.16,26c-3.82,18.73,6.69,36.29,24.46,40.85a39.15,39.15,0,0,0,9.84,1.28c9.78,0,18.63-3.9,24.11-10.22v1.32c0,2.1,0,3.26.61,4.49a5,5,0,0,0,4.45,2.63,5.26,5.26,0,0,0,3-.93c2.28-1.53,2.58-4.1,2.58-6.42V112.62l-.11-1.15A32.38,32.38,0,0,0,487.85,103.89Zm-27.76,34.76a27,27,0,0,1-6,.69c-11,0-20-7-23-17.91a21,21,0,0,1-.93-5.07,24.27,24.27,0,0,1,16.82-25,26.4,26.4,0,0,1,7.76-1.19c13.07,0,23.32,10.14,23.83,23.6C479.09,126,471.67,136,460.09,138.65Z" transform="translate(-20.94 -59.57)"/><path class="cls-2" d="M551.41,84.36A5,5,0,0,0,547,81.73a5.27,5.27,0,0,0-3,.92c-2.18,1.45-2.36,4-2.36,6.43v31.64c0,11-5.67,17.85-14.79,17.85h0a20.58,20.58,0,0,1-2.67-.19c-8.26-1.13-12.8-7-12.8-16.63V88.85a9.53,9.53,0,0,0-.73-4.49,5,5,0,0,0-4.44-2.63,5.2,5.2,0,0,0-3,.93c-2.29,1.52-2.59,4.1-2.59,6.42v32.78c0,12.92,5.88,22.06,16.56,25.74a26.88,26.88,0,0,0,8.89,1.52,24.29,24.29,0,0,0,15.51-5.36,8,8,0,0,1-.15,1.14l0,.17c-1,7.14-4.67,11.42-11.19,13.12a15.56,15.56,0,0,1-4.24.6,12.59,12.59,0,0,1-5.57-1.23,12.73,12.73,0,0,1-5-3.95l-1.64-2.12-1-1.15a12.71,12.71,0,0,0-1.5-1.62l-.31-.31-.25-.15a5,5,0,0,0-2.55-.69,5.32,5.32,0,0,0-5.23,4.29c-.39,2.33.58,4.36,2.44,7.15a27.67,27.67,0,0,0,5,5.25,24.91,24.91,0,0,0,15.34,5h0a30,30,0,0,0,7.48-1c12.42-3.2,19.26-13.17,19.26-28.07V88.85A9.2,9.2,0,0,0,551.41,84.36Z" transform="translate(-20.94 -59.57)"/><path class="cls-1" d="M143.57,98.14l-.23-.67c-4-11-13.08-17.57-24.41-17.57h-.29a26.42,26.42,0,0,0-5.5.52c-9.08,2-19.91,8.59-19.91,28.43v31.87a9,9,0,0,0,1.07,4.48,5,5,0,0,0,4.45,2.64,5.2,5.2,0,0,0,3-.93c2.18-1.46,2.37-3.95,2.37-6.42l.11-7.54,0-2.22h0l0-11.52h17.13c5.17,0,6.42-2.63,6.56-4.85a4.72,4.72,0,0,0-1.23-3.67c-1.12-1.19-2.87-1.77-5.33-1.77H104v-.07c0-10.77,3.57-16.29,11.61-17.92a15.1,15.1,0,0,1,3.27-.36,14,14,0,0,1,10.85,5,14.36,14.36,0,0,1,3,5.44c1.16,5.57,1.79,7.27,2.49,8.32l.09.14.11.12a5.49,5.49,0,0,0,4.11,1.77,5.75,5.75,0,0,0,2.6-.62c3.37-1.82,3-6.25,2.26-10A26.32,26.32,0,0,0,143.57,98.14Z" transform="translate(-20.94 -59.57)"/><path class="cls-2" d="M572.72,76.62a8.7,8.7,0,1,1,2.54-6.16A8.45,8.45,0,0,1,572.72,76.62ZM561.29,65.18a7.22,7.22,0,0,0-2.17,5.29,7.3,7.3,0,0,0,2.16,5.32,7.45,7.45,0,0,0,10.57,0A7.51,7.51,0,0,0,566.57,63,7.19,7.19,0,0,0,561.29,65.18Zm5.11.49A7.35,7.35,0,0,1,569,66a2.38,2.38,0,0,1,1.47,2.41,2.09,2.09,0,0,1-.93,1.89,3.59,3.59,0,0,1-1.38.46,2.36,2.36,0,0,1,1.64.93,2.67,2.67,0,0,1,.51,1.48v.7c0,.22,0,.45,0,.71a1.81,1.81,0,0,0,.08.5l.05.11h-1.57a.34.34,0,0,0,0-.1.93.93,0,0,0,0-.1l0-.3v-.76a2.33,2.33,0,0,0-.91-2.19,4.23,4.23,0,0,0-1.87-.3h-1.32V75.2h-1.68V65.67Zm1.81,1.5a4.3,4.3,0,0,0-2-.36h-1.44v3.46h1.52a4.37,4.37,0,0,0,1.6-.22,1.69,1.69,0,0,0,.35-2.88Z" transform="translate(-20.94 -59.57)"/></svg>