<?xml version="1.0" encoding="utf-8"?>
<!-- Generator: Adobe Illustrator 22.0.1, SVG Export Plug-In . SVG Version: 6.00 Build 0)  -->
<svg version="1.1" id="Laag_2" xmlns="http://www.w3.org/2000/svg" xmlns:xlink="http://www.w3.org/1999/xlink" x="0px" y="0px"
	 viewBox="0 0 554.3 109.7" style="enable-background:new 0 0 554.3 109.7;" xml:space="preserve">
<title>AfterPay_Logo_black</title>
<path d="M37.9,0.7c-2.1-0.4-4.3-0.6-6.4-0.6c-2.1,0-4.2,0.2-6.3,0.6C9.9,3.7,0,15.8,0,31.5v49.7c-0.1,1.5,0.2,3.1,0.8,4.5
	c0.9,1.6,2.6,2.6,4.4,2.6c1.1,0,2.1-0.3,3-0.9c1.9-1.2,2.7-3.2,2.7-6.4V60.5h41.1v20.6c0,1.6,0.3,3.1,1.1,4.5
	c0.9,1.6,2.6,2.7,4.4,2.6l0,0c1.1,0,2.1-0.3,3-0.9c2.2-1.4,2.5-3.9,2.5-6.4V31.4C63.1,15.8,53.2,3.8,37.9,0.7z M11.1,50.2V31.6
	c0-8,2.8-13.6,9-17.7c3.4-2.3,7.4-3.5,11.5-3.5c1.4,0,2.8,0.1,4.1,0.4c2.6,0.5,5.1,1.6,7.3,3.1c6.1,4,9.1,9.8,9.1,17.7v18.7
	L11.1,50.2z"/>
<path d="M177.5,59.1c-0.9,0-1.8,0.2-2.6,0.7c-1.7,0.8-2.8,2.5-3.2,5l-0.5,2.6l-0.1,0.7c-1.6,7-7,11.4-14.1,11.4
	c-0.9,0-1.7-0.1-2.6-0.2c-8.5-1.3-12.5-7.1-12.5-18.2v-1.4h16.2c2,0,7.1,0,7.1-5.2c0.1-2.5-1.8-4.6-4.2-4.8
	c-1.1-0.1-2.2-0.2-3.4-0.1h-15.8V27.1c0.1-1.5-0.2-3.1-0.8-4.5c-0.9-1.6-2.6-2.6-4.4-2.6c-1.1,0-2.1,0.3-3,0.9
	c-2.2,1.5-2.5,3.9-2.5,6.4v32.4c0,18.2,6.6,27.3,21.3,29.7c1.7,0.3,3.4,0.5,5.2,0.5l0,0c11.4,0.2,21.5-7.5,24.3-18.6
	c0.2-0.9,0.4-1.7,0.5-2.6c0.6-3.3,0.5-5.2-0.4-6.9C181.1,60.1,179.4,59,177.5,59.1z"/>
<path d="M224.7,20.7c-3.1,0-6.2,0.4-9.2,1.1c-18.5,4.2-30.2,22.6-26,41.2c0.3,1.3,0.7,2.6,1.1,3.8c4.5,13.9,17.8,23.3,33.1,23.3
	c2.8,0,5.6-0.3,8.3-0.9c4.3-1,8.5-2.7,12.2-5.1c2.4-1.5,4.5-3.3,6.4-5.4c1.9-2.2,3-4,2.8-6.1c-0.3-2.6-2.4-4.5-5-4.5
	c-0.3,0-0.7,0-1,0.1h-0.2c-1.3,0.3-2.5,1-3.4,1.9l-0.1,0.1l-0.9,1.1l-1.5,1.4c-3.2,3.3-7.3,5.6-11.8,6.6c-1.8,0.4-3.7,0.6-5.6,0.6
	c-10,0-19-6.2-22.4-15.6c-0.4-1.2-0.7-2.3-0.9-3.2h52.1l0.9-0.1l1.8-0.1c1.5,0,3-0.8,3.9-2c1.5-2.2,1.4-5.8-0.5-12.6
	C254.4,31.1,240.5,20.6,224.7,20.7z M200.3,51.6c0.2-1.2,0.5-2.4,0.9-3.6c3-10.2,12.5-17.2,23.1-17.1c2.4,0,4.8,0.3,7.1,1
	c8.3,2.4,14.7,9.1,16.7,17.6c0.2,0.7,0.4,1.5,0.5,2.2L200.3,51.6z"/>
<path d="M318.5,38.6l-0.2-0.7c-4-11-13.1-17.6-24.4-17.6h-0.3c-1.8,0-3.7,0.2-5.5,0.5c-9.1,2-19.9,8.6-19.9,28.4v31.9
	c0,1.6,0.3,3.1,1.1,4.5c0.9,1.6,2.6,2.7,4.4,2.6c1.1,0,2.1-0.3,3-0.9c2.1-1.4,2.2-3.6,2.2-6.4V49.3c0-10.8,3.6-16.3,11.6-17.9
	c1.1-0.2,2.2-0.4,3.3-0.4c4.2,0,8.2,1.8,10.9,5c1.4,1.6,2.4,3.4,3,5.4c1.1,5.6,1.8,7.3,2.5,8.3l0.1,0.1l0.1,0.1
	c1.1,1.2,2.6,1.8,4.1,1.8c0.9,0,1.8-0.2,2.6-0.6c3.4-1.8,3-6.2,2.3-10C319.1,40.3,318.8,39.4,318.5,38.6z"/>
<path d="M364.4,0h-0.4c-17.4,0.2-29.1,12.9-29.1,31.5v49.7c0,1.6,0.3,3.1,1.1,4.5c0.9,1.6,2.6,2.6,4.5,2.6c1.1,0,2.1-0.3,3-0.9
	c2.3-1.5,2.6-4.1,2.6-6.4v-23h17.6c16,0,27-8.3,29.9-22.9c1.8-8.5-0.3-17.4-5.8-24.2C382.1,3.9,373.5-0.1,364.4,0z M382.9,29.2
	c-0.2,10.8-8.2,18.3-19.5,18.3h-17.4V30.4c0-7.5,1.2-11.1,4.7-14.8c3.5-3.6,8.3-5.5,13.3-5.4h0.5C375.5,10.5,383.1,18.3,382.9,29.2
	L382.9,29.2z"/>
<path d="M466.9,44.3c-4-14.1-17.6-24-32.9-24c-3.6,0-7.2,0.5-10.6,1.6c-12.2,3.5-21.5,13.5-24.2,26c-3.8,18.7,6.7,36.3,24.5,40.8
	c3.2,0.8,6.5,1.3,9.8,1.3c9.8,0,18.6-3.9,24.1-10.2v1.3c0,2.1,0,3.3,0.6,4.5c0.9,1.6,2.6,2.6,4.5,2.6c1.1,0,2.1-0.3,3-0.9
	c2.3-1.5,2.6-4.1,2.6-6.4V53.1l-0.1-1.2C468,49.3,467.6,46.8,466.9,44.3z M439.1,79.1c-2,0.5-4,0.7-6,0.7c-11,0-20-7-23-17.9
	c-0.5-1.6-0.8-3.3-0.9-5.1c-0.9-11.2,6.1-21.6,16.8-25c2.5-0.8,5.1-1.2,7.8-1.2c13.1,0,23.3,10.1,23.8,23.6
	C458.1,66.4,450.7,76.4,439.1,79.1z"/>
<path d="M530.5,24.8c-0.9-1.6-2.6-2.6-4.4-2.6c-1.1,0-2.1,0.3-3,0.9c-2.2,1.4-2.4,4-2.4,6.4v31.6c0,11-5.7,17.9-14.8,17.9l0,0
	c-0.9,0-1.8-0.1-2.7-0.2c-8.3-1.1-12.8-7-12.8-16.6V29.3c0.1-1.5-0.1-3.1-0.7-4.5c-0.9-1.6-2.6-2.6-4.4-2.6c-1.1,0-2.1,0.3-3,0.9
	c-2.3,1.5-2.6,4.1-2.6,6.4v32.8c0,12.9,5.9,22.1,16.6,25.7c2.9,1,5.9,1.5,8.9,1.5c5.6,0.1,11.1-1.8,15.5-5.4c0,0.4-0.1,0.8-0.2,1.1
	v0.2c-1,7.1-4.7,11.4-11.2,13.1c-1.4,0.4-2.8,0.6-4.2,0.6c-1.9,0-3.8-0.4-5.6-1.2c-2-0.9-3.7-2.2-5-3.9l-1.6-2.1l-1-1.1
	c-0.5-0.6-1-1.1-1.5-1.6l-0.3-0.3l-0.2-0.1c-0.8-0.5-1.7-0.7-2.5-0.7c-2.5,0-4.7,1.8-5.2,4.3c-0.4,2.3,0.6,4.4,2.4,7.1
	c1.4,2,3.1,3.7,5,5.2c4.4,3.3,9.8,5.1,15.3,5l0,0c2.5,0,5-0.4,7.5-1c12.4-3.2,19.3-13.2,19.3-28.1V29.3
	C531.6,27.7,531.2,26.2,530.5,24.8z"/>
<path d="M122.6,38.6l-0.2-0.7c-4-11-13.1-17.6-24.4-17.6h-0.3c-1.8,0-3.7,0.2-5.5,0.5c-9.1,2-19.9,8.6-19.9,28.4v31.9
	c0,1.6,0.3,3.1,1.1,4.5c0.9,1.6,2.6,2.7,4.4,2.6c1.1,0,2.1-0.3,3-0.9c2.2-1.5,2.4-3.9,2.4-6.4l0.1-7.5v-2.2l0,0V59.6h17.1
	c5.2,0,6.4-2.6,6.6-4.8c0.1-1.3-0.3-2.7-1.2-3.7c-1.1-1.2-2.9-1.8-5.3-1.8H83.1v-0.1c0-10.8,3.6-16.3,11.6-17.9
	c1.1-0.2,2.2-0.4,3.3-0.4c4.2,0,8.2,1.8,10.8,5c1.4,1.6,2.4,3.4,3,5.4c1.2,5.6,1.8,7.3,2.5,8.3l0.1,0.1l0.1,0.1
	c1.1,1.1,2.6,1.8,4.1,1.8c0.9,0,1.8-0.2,2.6-0.6c3.4-1.8,3-6.2,2.3-10C123.2,40.3,122.9,39.4,122.6,38.6z"/>
<path d="M551.8,17.1c-3.4,3.4-8.9,3.4-12.3,0c-3.4-3.4-3.4-8.9,0-12.3c3.4-3.4,8.9-3.4,12.3,0c1.6,1.6,2.6,3.8,2.6,6.1
	C554.4,13.2,553.4,15.4,551.8,17.1z M540.3,5.6c-1.4,1.4-2.2,3.3-2.2,5.3c0,2,0.7,3.9,2.2,5.3c2.9,2.9,7.6,2.9,10.5,0c0,0,0,0,0,0
	c2.9-2.9,2.9-7.7-0.1-10.6c-1.4-1.4-3.3-2.2-5.2-2.2C543.6,3.4,541.7,4.2,540.3,5.6z M545.5,6.1c0.9,0,1.8,0.1,2.6,0.3
	c1,0.4,1.6,1.4,1.5,2.4c0.1,0.8-0.3,1.5-0.9,1.9c-0.4,0.2-0.9,0.4-1.4,0.5c0.7,0.1,1.2,0.4,1.6,0.9c0.3,0.4,0.5,0.9,0.5,1.5v0.7
	c0,0.2,0,0.4,0,0.7c0,0.2,0,0.3,0.1,0.5l0,0.1h-1.6c0,0,0-0.1,0-0.1c0,0,0-0.1,0-0.1v-0.3v-0.8c0.1-0.8-0.2-1.7-0.9-2.2
	c-0.6-0.2-1.2-0.3-1.9-0.3h-1.3v3.8h-1.7V6.1H545.5z M547.3,7.6c-0.6-0.3-1.3-0.4-2-0.4h-1.4v3.5h1.5c0.5,0,1.1,0,1.6-0.2
	c0.9-0.4,1.2-1.4,0.9-2.2C547.7,8,547.5,7.8,547.3,7.6L547.3,7.6z"/>
</svg>
